<svg id="Layer_1" data-name="Layer 1" xmlns="http://www.w3.org/2000/svg" viewBox="0 0 78.14 78.3"><title>arrow2</title><path d="M36.9,0q-.09,15.21-.1,30.42t.06,30.3q0,8.55.1,17.08a.25.25,0,0,0,.5,0q-.1-15.21-.14-30.42t0-30.3q0-8.53.07-17.08a.25.25,0,0,0-.5,0Z" transform="translate(0.24 0.24)"/><path d="M-.18,36.64l3.71,4.11,8.9,9.89L23.14,62.55l9.31,10.34,3.07,3.41A17.13,17.13,0,0,0,37,77.91L37,78c.22.24.57-.12.36-.35l-3.71-4.12-8.9-9.89L14.07,51.71,4.76,41.38,1.69,38A17.13,17.13,0,0,0,.24,36.35l-.06-.07c-.22-.24-.57.12-.36.36Z" transform="translate(0.24 0.24)"/><path d="M37.39,78l4-3.84L51.06,65,62.75,53.82l10.08-9.6,3.34-3.17a18.78,18.78,0,0,0,1.58-1.51l.07-.06c.23-.23-.12-.58-.36-.36l-4,3.84-9.64,9.18L52.09,63.28,42,72.88l-3.34,3.18a17.2,17.2,0,0,0-1.58,1.5.23.23,0,0,1-.07.07c-.23.22.12.57.36.35Z" transform="translate(0.24 0.24)"/></svg>
