<svg id="Layer_1" data-name="Layer 1" xmlns="http://www.w3.org/2000/svg" viewBox="0 0 80.64 80.09"><defs><style>.cls-1{fill:none;stroke:#000;stroke-miterlimit:10;stroke-width:2px;}</style></defs><title>back-arrow2</title><path class="cls-1" d="M78,37.81q-15.19-.31-30.41-.55t-30.3-.39Q8.74,36.74.21,36.71a.25.25,0,0,0,0,.5q15.21.13,30.42.31t30.3.45c5.69.09,11.38.19,17.08.33a.25.25,0,0,0,.25-.25A.25.25,0,0,0,78,37.8Z" transform="translate(1.39 0.87)"/><path class="cls-1" d="M41.92.19,37.75,3.84l-10,8.75L15.66,23.12,5.19,32.28l-3.46,3A17.23,17.23,0,0,0,.1,36.75H0c-.24.22.11.57.35.37l4.17-3.65,10-8.76,12.09-10.5L37.1,5.06l3.43-3A17.49,17.49,0,0,0,42.2.61l.07-.06C42.52.34,42.16,0,41.92.19Z" transform="translate(1.39 0.87)"/><path class="cls-1" d="M0,37.14,3.79,41.2l9,9.8,11,11.86,9.45,10.22,3.12,3.38a18.82,18.82,0,0,0,1.48,1.61l.06.07c.23.23.58-.11.37-.36l-3.78-4-9-9.78-11-11.89L5.06,41.83,1.93,38.44a16,16,0,0,0-1.48-1.6l-.07-.07c-.22-.24-.57.11-.35.35Z" transform="translate(1.39 0.87)"/></svg>
