<svg id="Layer_1" data-name="Layer 1" xmlns="http://www.w3.org/2000/svg" viewBox="0 0 325.27 287.91"><defs><style>.cls-1{fill:#fff;}.cls-1,.cls-2{stroke:#000;stroke-miterlimit:10;stroke-width:14px;}</style></defs><title>linkedin-icon</title><rect class="cls-1" x="22.19" y="20.47" width="280.33" height="250.36" rx="70.89"/><path class="cls-2" d="M231.63,275.33H93.09a75.49,75.49,0,0,1-75.4-75.4V91.36A75.48,75.48,0,0,1,93.09,16H231.63A75.48,75.48,0,0,1,307,91.36V199.93A75.49,75.49,0,0,1,231.63,275.33ZM93.09,25a66.47,66.47,0,0,0-66.4,66.39V199.93a66.48,66.48,0,0,0,66.4,66.4H231.63a66.48,66.48,0,0,0,66.4-66.4V91.36A66.47,66.47,0,0,0,231.63,25Z"/><rect x="79.28" y="118.99" width="22.97" height="110.32"/><path d="M102.75,229.81h-24V118.49h24Zm-23-1h22V119.49h-22Z"/><rect x="79.28" y="69.35" width="22.97" height="22.06"/><path d="M102.75,91.91h-24V68.84h24Zm-23-1h22V69.84h-22Z"/><path d="M159.68,187.94V174.15c0-16.82,14.07-30.34,31.58-30.34s31.59,13.52,31.59,30.34v55.16h23V174.15c0-29-24.41-52.4-54.56-52.4a55.93,55.93,0,0,0-31.58,9.65V119h-23V229.31h23Z"/><path d="M245.94,229.44H222.72V174.15a29.46,29.46,0,0,0-9.18-21.39,32.54,32.54,0,0,0-44.55,0,29.43,29.43,0,0,0-9.19,21.39v55.29H136.58V118.86H159.8v12.31A56.43,56.43,0,0,1,229.93,137a51.15,51.15,0,0,1,16,37.15Zm-23-.25h22.72v-55a50.94,50.94,0,0,0-15.93-37,56.19,56.19,0,0,0-70-5.68l-.2.14V119.11H136.83V229.19h22.72v-55a29.71,29.71,0,0,1,9.26-21.57,32.79,32.79,0,0,1,44.9,0A29.71,29.71,0,0,1,223,174.15Z"/></svg>
