<?xml version="1.0" encoding="utf-8"?>
<!-- Generator: Adobe Illustrator 23.0.6, SVG Export Plug-In . SVG Version: 6.00 Build 0)  -->
<svg version="1.1" id="Layer_1" xmlns="http://www.w3.org/2000/svg" xmlns:xlink="http://www.w3.org/1999/xlink" x="0px" y="0px"
	 viewBox="0 0 566.93 566.93" style="enable-background:new 0 0 566.93 566.93;" xml:space="preserve">
<style type="text/css">
	.st0{fill:#FFFFFF;stroke:#F0F0F0;stroke-miterlimit:10;}
</style>
<path class="st0" d="M561.94,279.06l-0.34-24.68l-21.86,9.12l-114.08,47.58l-86.41,36.11l48.65-86.57l31.77-56.79l31.7-56.84
	c0.79-1.41,0.36-3.22-0.98-4.12c-1.41-0.93-3.29-0.53-4.21,0.9l-35.04,54.77l-34.96,54.82l-69.71,109.76l-16.35,25.73l28.89-10.41
	l116.23-41.87l92.16-33.28c-0.57,4.8-1.27,9.58-2.08,14.33c-2.26,12.7-5.63,25.14-9.73,37.29c-4.07,12.16-9.29,23.88-15.26,35.15
	c-5.99,11.25-12.7,22.1-20.4,32.18c-7.65,10.11-15.98,19.66-24.97,28.49c-9.03,8.8-18.78,16.79-28.98,24.03l-3.85,2.68l-1.93,1.34
	c-0.65,0.44-1.33,0.83-1.98,1.25l-7.94,4.97l-8.16,4.57c-0.68,0.38-1.35,0.78-2.04,1.13l-2.09,1.04l-4.18,2.08
	c-1.4,0.68-2.77,1.42-4.19,2.06l-4.26,1.87c-2.85,1.23-5.65,2.57-8.58,3.6c-2.91,1.08-5.78,2.25-8.71,3.27l-8.83,2.87
	c-47.28,14.43-99.2,12.93-144.8-4.55c-22.9-8.5-44.11-21.17-63.02-36.46c-9.39-7.75-18.18-16.2-26.28-25.25l-3.01-3.43
	c-0.99-1.15-2.03-2.25-2.95-3.47c-1.89-2.39-3.78-4.75-5.69-7.11c-1.82-2.43-3.58-4.91-5.37-7.35l-1.35-1.83l-1.26-1.9l-2.5-3.8
	l-2.52-3.78l-2.33-3.91c-1.52-2.62-3.2-5.14-4.56-7.86l-4.29-8.01l-3.95-8.18c-0.7-1.34-1.24-2.76-1.84-4.15l-1.78-4.18
	c-0.57-1.4-1.26-2.75-1.76-4.18l-1.59-4.25c-1.06-2.83-2.19-5.64-3.05-8.55c-0.9-2.89-1.91-5.75-2.75-8.65
	c-6.77-23.24-10.39-47.45-10.29-71.87l0.04-4.57c0.01-1.52-0.04-3.06,0.08-4.57l0.47-9.14c0.03-1.53,0.28-3.03,0.4-4.55l0.46-4.55
	c0.17-1.51,0.26-3.04,0.49-4.55l0.68-4.52c0.75-6.07,2.05-12.03,3.24-18.02l2.18-8.9c0.32-1.5,0.78-2.96,1.22-4.42l1.31-4.4
	c3.61-11.69,7.9-23.22,13.23-34.31c5.34-11.07,11.46-21.81,18.34-32.08l5.31-7.62l5.66-7.37l1.42-1.84l1.5-1.77l2.99-3.57
	c1-1.18,1.97-2.4,3.01-3.56l3.16-3.42c8.39-9.17,17.52-17.72,27.29-25.51c9.76-7.82,20.16-14.85,31.01-21.26l8.29-4.53
	c1.38-0.79,2.79-1.47,4.22-2.15l4.26-2.06c1.42-0.68,2.84-1.4,4.28-2.05l4.36-1.88c2.92-1.23,5.8-2.6,8.79-3.63
	c2.98-1.09,5.94-2.26,8.95-3.3l9.12-2.9c1.51-0.53,3.07-0.91,4.61-1.32l4.64-1.24c1.55-0.4,3.1-0.86,4.66-1.22l4.71-1l4.73-1.01
	c0.79-0.16,1.57-0.35,2.37-0.5l2.38-0.39l9.57-1.59c6.44-0.71,12.77-1.52,19.7-2.07c27.16-2.42,54.33-5.03,81.48-8.38
	c1.37-0.17,2.5-1.26,2.67-2.72c0.21-1.71-0.99-3.26-2.67-3.46c-27.16-3.34-54.33-5.96-81.48-8.38c-6.65-0.7-13.89-1-21.03-1.38
	L263.67,3.1h-2.69c-0.89,0.01-1.79,0.08-2.69,0.13l-5.38,0.31c-14.36,0.89-28.79,2.77-42.92,6.24
	c-14.17,3.33-28.13,7.88-41.71,13.56c-13.55,5.75-26.63,12.74-39.18,20.67c-12.63,7.86-24.43,17.09-35.59,27.09
	C82.36,81.12,71.86,92,62.46,103.86c-9.42,11.84-17.97,24.45-25.52,37.71l-5.44,10.08c-1.73,3.4-3.32,6.88-4.99,10.33
	c-1.71,3.43-3.1,7-4.61,10.53l-2.2,5.32c-0.71,1.78-1.32,3.6-1.98,5.4l-1.95,5.42c-0.65,1.81-1.32,3.61-1.85,5.46l-3.36,11.05
	c-1.91,7.46-3.89,14.92-5.25,22.52c-2.91,15.15-4.78,30.55-5.15,45.99c-1.06,30.87,3.07,62.04,11.92,91.74
	c4.58,14.8,10.2,29.27,17.02,43.14c6.75,13.9,14.87,27.07,23.73,39.6c4.4,6.3,9.26,12.24,14.1,18.18l7.61,8.59
	c1.25,1.45,2.61,2.79,3.94,4.16l4.01,4.09c10.8,10.79,22.36,20.76,34.62,29.72c12.33,8.86,25.29,16.74,38.74,23.58
	c13.42,6.89,27.43,12.54,41.73,17.08c14.3,4.54,28.91,8.04,43.69,10.17c3.67,0.66,7.39,1.02,11.09,1.43
	c3.7,0.39,7.41,0.87,11.12,1.02c3.71,0.21,7.43,0.48,11.14,0.63l11.15,0.1c14.85-0.21,29.68-1.37,44.33-3.84
	c14.63-2.55,29.05-6.21,43.11-10.96c56.2-19.22,105.56-57.08,138.96-105.98c8.46-12.15,15.75-25.1,22.15-38.43
	c6.36-13.35,11.81-27.16,15.92-41.36c1.16-3.51,2-7.11,2.94-10.69l1.37-5.37c0.46-1.79,0.77-3.61,1.16-5.42l1.1-5.43
	c0.34-1.81,0.78-3.61,1.02-5.44l1.67-10.94C561.35,308.46,562.14,293.74,561.94,279.06z"/>
</svg>
