<svg id="Layer_1" data-name="Layer 1" xmlns="http://www.w3.org/2000/svg" viewBox="0 0 304.26 269.01"><defs><style>.cls-1{fill:none;}</style></defs><title>Untitled-1</title><rect class="cls-1" x="11.13" y="8.12" width="280.33" height="250.36" rx="70.89"/><path d="M220.57,262.48H82a75,75,0,0,1-74.9-74.89V79A75,75,0,0,1,82,4.12H220.57A75,75,0,0,1,295.46,79V187.59A75,75,0,0,1,220.57,262.48ZM82,12.12A67,67,0,0,0,15.13,79V187.59A67,67,0,0,0,82,254.48H220.57a67,67,0,0,0,66.89-66.89V79a67,67,0,0,0-66.89-66.9Z"/><path d="M220.57,263H82a75.48,75.48,0,0,1-75.4-75.39V79A75.48,75.48,0,0,1,82,3.62H220.57A75.48,75.48,0,0,1,296,79V187.59A75.48,75.48,0,0,1,220.57,263ZM82,4.62A74.48,74.48,0,0,0,7.63,79V187.59A74.47,74.47,0,0,0,82,262H220.57A74.47,74.47,0,0,0,295,187.59V79a74.48,74.48,0,0,0-74.39-74.4ZM220.57,255H82a67.47,67.47,0,0,1-67.4-67.39V79A67.48,67.48,0,0,1,82,11.62H220.57A67.47,67.47,0,0,1,288,79V187.59A67.47,67.47,0,0,1,220.57,255ZM82,12.62A66.48,66.48,0,0,0,15.63,79V187.59A66.47,66.47,0,0,0,82,254H220.57A66.46,66.46,0,0,0,287,187.59V79a66.47,66.47,0,0,0-66.39-66.4Z"/><path d="M151.3,201.91a66.15,66.15,0,1,1,66.15-66.15A66.23,66.23,0,0,1,151.3,201.91Zm0-124.3a58.15,58.15,0,1,0,58.15,58.15A58.21,58.21,0,0,0,151.3,77.61Z"/><path d="M220.78,63.58a15.67,15.67,0,1,1,15.66-15.67A15.69,15.69,0,0,1,220.78,63.58Zm0-21.34a5.67,5.67,0,1,0,5.66,5.67A5.68,5.68,0,0,0,220.78,42.24Z"/></svg>
