<svg id="Layer_2" data-name="Layer 2" xmlns="http://www.w3.org/2000/svg" viewBox="0 0 364 312.58"><defs><style>.cls-1,.cls-2{stroke:#000;stroke-miterlimit:10;stroke-width:2px;}.cls-2{fill:#fff;}.cls-3{font-size:62px;font-family:Lato-Light, Lato;font-weight:300;}.cls-4{letter-spacing:-0.02em;}</style></defs><title>vintage-instagram-icon</title><path class="cls-1" d="M1661.82,153.88c-12.89,0-23-4.66-23-10.61s10.1-10.61,23-10.61,23,4.66,23,10.61S1674.71,153.88,1661.82,153.88Zm0-19.45c-11.5,0-21.22,4-21.22,8.84s9.72,8.84,21.22,8.84,21.22-4.05,21.22-8.84S1673.32,134.43,1661.82,134.43Z" transform="translate(-1606 -128.12)"/><path class="cls-1" d="M1713.1,153.88c-12.89,0-23-4.66-23-10.61s10.1-10.61,23-10.61,23,4.66,23,10.61S1726,153.88,1713.1,153.88Zm0-19.45c-11.5,0-21.22,4-21.22,8.84s9.72,8.84,21.22,8.84,21.22-4.05,21.22-8.84S1724.6,134.43,1713.1,134.43Z" transform="translate(-1606 -128.12)"/><path class="cls-1" d="M1932.37,370.5h-290a22.13,22.13,0,0,1-22.11-22.1V175.1A22.14,22.14,0,0,1,1642.37,153h95.49v-1.76a22.13,22.13,0,0,1,22.1-22.11h173.3a22.13,22.13,0,0,1,22.1,22.11v58.35a22.23,22.23,0,0,1-.88,6.14V348.4A22.13,22.13,0,0,1,1932.37,370.5Zm-290-215.74A20.36,20.36,0,0,0,1622,175.1V348.4a20.36,20.36,0,0,0,20.34,20.33h290a20.36,20.36,0,0,0,20.34-20.33V215.46l0-.12a20.33,20.33,0,0,0,.84-5.76V151.23a20.36,20.36,0,0,0-20.33-20.34H1760a20.36,20.36,0,0,0-20.33,20.34v3.53Z" transform="translate(-1606 -128.12)"/><rect class="cls-1" x="1622.03" y="200.74" width="205.13" height="1.77" transform="translate(-1607.71 -112.96) rotate(-0.5)"/><rect class="cls-1" x="221.16" y="87.65" width="125.55" height="1.77"/><path class="cls-1" d="M1827.16,217.54a.89.89,0,0,1-.89-.89V200.74a.89.89,0,0,1,1.77,0v15.91A.88.88,0,0,1,1827.16,217.54Z" transform="translate(-1606 -128.12)"/><ellipse class="cls-2" cx="201.71" cy="141.58" rx="88.42" ry="74.27"/><path class="cls-1" d="M1807.71,344.86c-49.24,0-89.3-33.71-89.3-75.16s40.06-75.15,89.3-75.15,89.3,33.71,89.3,75.15S1857,344.86,1807.71,344.86Zm0-148.54c-48.27,0-87.54,32.92-87.54,73.38s39.27,73.39,87.54,73.39,87.53-32.92,87.53-73.39S1856,196.32,1807.71,196.32Z" transform="translate(-1606 -128.12)"/><path class="cls-1" d="M1806.58,334.69c-42.88,0-77.76-29.36-77.76-65.46s34.88-65.46,77.76-65.46,77.76,29.37,77.76,65.46S1849.46,334.69,1806.58,334.69Zm0-129.15c-41.9,0-76,28.57-76,63.69s34.09,63.69,76,63.69,76-28.57,76-63.69S1848.48,205.54,1806.58,205.54Z" transform="translate(-1606 -128.12)"/><path class="cls-1" d="M1807.24,315.77c-29.83,0-54.09-20.44-54.09-45.58s24.26-45.58,54.09-45.58,54.09,20.45,54.09,45.58S1837.07,315.77,1807.24,315.77Zm0-89.39c-28.85,0-52.32,19.65-52.32,43.81S1778.39,314,1807.24,314s52.33-19.65,52.33-43.81S1836.09,226.38,1807.24,226.38Z" transform="translate(-1606 -128.12)"/><path class="cls-1" d="M1909.2,199.86h-29.69A12.58,12.58,0,0,1,1867,187.29V168.21a12.57,12.57,0,0,1,12.56-12.56h29.69a12.57,12.57,0,0,1,12.56,12.56v19.08A12.58,12.58,0,0,1,1909.2,199.86Zm-29.69-42.44a10.81,10.81,0,0,0-10.8,10.79v19.08a10.82,10.82,0,0,0,10.8,10.8h29.69a10.82,10.82,0,0,0,10.8-10.8V168.21a10.81,10.81,0,0,0-10.8-10.79Z" transform="translate(-1606 -128.12)"/><path class="cls-1" d="M1788.7,175.1h-29.19a11.06,11.06,0,0,1-11-11v-.89a11.06,11.06,0,0,1,11-11h29.19a11.07,11.07,0,0,1,11,11v.89A11.07,11.07,0,0,1,1788.7,175.1Zm-29.19-21.22a9.28,9.28,0,0,0-9.27,9.28v.89a9.28,9.28,0,0,0,9.27,9.28h29.19a9.29,9.29,0,0,0,9.28-9.28v-.89a9.29,9.29,0,0,0-9.28-9.28Z" transform="translate(-1606 -128.12)"/><path class="cls-1" d="M1829.81,196.32c-4,0-7.07-6.6-7.07-15s3.1-15,7.07-15,7.07,6.6,7.07,15S1833.78,196.32,1829.81,196.32Zm0-28.29c-2.51,0-5.3,5.44-5.3,13.26s2.79,13.26,5.3,13.26,5.31-5.45,5.31-13.26S1832.32,168,1829.81,168Z" transform="translate(-1606 -128.12)"/><path class="cls-1" d="M1621.15,233.45a14.15,14.15,0,1,1,0-28.29.89.89,0,0,1,0,1.77,12.38,12.38,0,0,0,0,24.76.88.88,0,1,1,0,1.76Z" transform="translate(-1606 -128.12)"/><path class="cls-1" d="M1954.85,230.32a.88.88,0,1,1,0-1.76,12.38,12.38,0,1,0,0-24.76.89.89,0,0,1,0-1.77,14.15,14.15,0,1,1,0,28.29Z" transform="translate(-1606 -128.12)"/><path class="cls-1" d="M1764.38,172.51a.88.88,0,0,1-.88-.88V159.12a.89.89,0,0,1,1.77,0v12.51A.89.89,0,0,1,1764.38,172.51Z" transform="translate(-1606 -128.12)"/><path class="cls-1" d="M1774.11,172.45a.89.89,0,0,1-.89-.89V159.18a.89.89,0,0,1,1.77,0v12.38A.88.88,0,0,1,1774.11,172.45Z" transform="translate(-1606 -128.12)"/><path class="cls-1" d="M1783.83,172.19a.88.88,0,0,1-.88-.89V159.44a.89.89,0,0,1,1.77,0V171.3A.89.89,0,0,1,1783.83,172.19Z" transform="translate(-1606 -128.12)"/><path class="cls-1" d="M1729.9,224.61c-4.39,0-8-4.76-8-10.61s3.57-10.61,8-10.61,8,4.76,8,10.61S1734.29,224.61,1729.9,224.61Zm0-19.45c-3.41,0-6.19,4-6.19,8.84s2.78,8.84,6.19,8.84,6.19-4,6.19-8.84S1733.31,205.16,1729.9,205.16Z" transform="translate(-1606 -128.12)"/><text class="cls-3" transform="translate(62 301.04)">instag<tspan class="cls-4" x="158.47" y="0">r</tspan><tspan x="181.53" y="0">am</tspan></text></svg>
