<?xml version="1.0" encoding="utf-8"?>
<!-- Generator: Adobe Illustrator 23.0.6, SVG Export Plug-In . SVG Version: 6.00 Build 0)  -->
<svg version="1.1" id="Layer_1" xmlns="http://www.w3.org/2000/svg" xmlns:xlink="http://www.w3.org/1999/xlink" x="0px" y="0px"
	 viewBox="0 0 566.93 566.93" style="enable-background:new 0 0 566.93 566.93;" xml:space="preserve">
<style type="text/css">
	.st0{fill:none;stroke:#1D1D1B;stroke-width:33;stroke-linecap:round;stroke-miterlimit:10;}
	.st1{fill:none;stroke:#1D1D1B;stroke-width:26;stroke-miterlimit:10;}
	.st2{fill:#FFFFFF;stroke:#1D1D1B;stroke-width:30;stroke-linecap:round;stroke-miterlimit:10;}
	.st3{fill:none;stroke:#1D1D1B;stroke-width:55;stroke-linecap:round;stroke-miterlimit:10;}
	.st4{fill:#1D1D1B;}
</style>
<path class="st4" d="M566.9,279.06l-0.35-24.68l-22.25,9.12l-116.11,47.58l-87.94,36.11l49.51-86.57l32.33-56.79l32.26-56.84
	c0.8-1.41,0.37-3.22-1-4.12c-1.43-0.93-3.35-0.53-4.28,0.9l-35.66,54.77l-35.58,54.82l-70.95,109.76l-16.64,25.73l29.4-10.41
	l118.29-41.87l93.8-33.28c-0.58,4.8-1.29,9.58-2.12,14.33c-2.3,12.7-5.73,25.14-9.9,37.29c-4.14,12.16-9.46,23.88-15.53,35.15
	c-6.1,11.25-12.93,22.1-20.76,32.18c-7.79,10.11-16.26,19.66-25.41,28.49c-9.19,8.8-19.11,16.79-29.49,24.03l-3.92,2.68l-1.96,1.34
	c-0.66,0.44-1.35,0.83-2.02,1.25l-8.08,4.97l-8.31,4.57c-0.69,0.38-1.37,0.78-2.08,1.13l-2.13,1.04l-4.25,2.08
	c-1.42,0.68-2.82,1.42-4.26,2.06l-4.34,1.87c-2.9,1.23-5.75,2.57-8.73,3.6c-2.96,1.08-5.88,2.25-8.86,3.27l-8.99,2.87
	c-48.12,14.43-100.96,12.93-147.37-4.55c-23.31-8.5-44.89-21.17-64.14-36.46c-9.56-7.75-18.5-16.2-26.75-25.25l-3.06-3.43
	c-1.01-1.15-2.07-2.25-3-3.47c-1.92-2.39-3.85-4.75-5.79-7.11c-1.85-2.43-3.64-4.91-5.47-7.35l-1.37-1.83l-1.28-1.9l-2.54-3.8
	l-2.56-3.78l-2.37-3.91c-1.55-2.62-3.26-5.14-4.64-7.86l-4.37-8.01l-4.02-8.18c-0.71-1.34-1.26-2.76-1.87-4.15l-1.81-4.18
	c-0.58-1.4-1.28-2.75-1.79-4.18l-1.62-4.25c-1.08-2.83-2.23-5.64-3.1-8.55c-0.92-2.89-1.94-5.75-2.8-8.65
	c-6.89-23.24-10.57-47.45-10.47-71.87l0.04-4.57c0.01-1.52-0.04-3.06,0.08-4.57l0.48-9.14c0.03-1.53,0.28-3.03,0.41-4.55l0.47-4.55
	c0.17-1.51,0.26-3.04,0.5-4.55l0.69-4.52c0.76-6.07,2.09-12.03,3.3-18.02l2.22-8.9c0.33-1.5,0.79-2.96,1.24-4.42l1.33-4.4
	c3.67-11.69,8.04-23.22,13.47-34.31c5.43-11.07,11.66-21.81,18.67-32.08l5.4-7.62l5.76-7.37l1.45-1.84l1.53-1.77l3.04-3.57
	c1.02-1.18,2.01-2.4,3.06-3.56l3.22-3.42c8.54-9.17,17.83-17.72,27.77-25.51c9.93-7.82,20.52-14.85,31.56-21.26l8.44-4.53
	c1.4-0.79,2.84-1.47,4.29-2.15l4.34-2.06c1.45-0.68,2.89-1.4,4.36-2.05l4.44-1.88c2.97-1.23,5.9-2.6,8.95-3.63
	c3.03-1.09,6.05-2.26,9.11-3.3l9.28-2.9c1.54-0.53,3.12-0.91,4.69-1.32l4.72-1.24c1.58-0.4,3.15-0.86,4.74-1.22l4.79-1l4.81-1.01
	c0.8-0.16,1.6-0.35,2.41-0.5l2.42-0.39l9.74-1.59c6.55-0.71,13-1.52,20.05-2.07c27.64-2.42,55.29-5.03,82.93-8.38
	c1.39-0.17,2.54-1.26,2.72-2.72c0.21-1.71-1.01-3.26-2.72-3.46c-27.64-3.34-55.29-5.96-82.93-8.38c-6.77-0.7-14.14-1-21.4-1.38
	l-10.93-0.01l-2.74,0c-0.91,0.01-1.82,0.08-2.74,0.13l-5.48,0.31c-14.61,0.89-29.3,2.77-43.68,6.24
	c-14.42,3.33-28.63,7.88-42.45,13.56c-13.79,5.75-27.1,12.74-39.88,20.67c-12.85,7.86-24.86,17.09-36.22,27.09
	c-11.34,10.02-22.03,20.9-31.6,32.76c-9.59,11.84-18.29,24.45-25.97,37.71l-5.54,10.08c-1.76,3.4-3.38,6.88-5.08,10.33
	c-1.74,3.43-3.16,7-4.69,10.53l-2.24,5.32c-0.72,1.78-1.34,3.6-2.02,5.4l-1.98,5.42c-0.66,1.81-1.34,3.61-1.88,5.46l-3.42,11.05
	c-1.94,7.46-3.96,14.92-5.34,22.52c-2.96,15.15-4.86,30.55-5.24,45.99c-1.08,30.87,3.12,62.04,12.13,91.74
	c4.66,14.8,10.38,29.27,17.32,43.14c6.87,13.9,15.13,27.07,24.15,39.6c4.48,6.3,9.42,12.24,14.35,18.18l7.75,8.59
	c1.27,1.45,2.66,2.79,4.01,4.16l4.08,4.09c10.99,10.79,22.76,20.76,35.23,29.72c12.55,8.86,25.74,16.74,39.43,23.58
	c13.66,6.89,27.92,12.54,42.47,17.08c14.55,4.54,29.42,8.04,44.47,10.17c3.74,0.66,7.52,1.02,11.29,1.43
	c3.77,0.39,7.54,0.87,11.32,1.02c3.78,0.21,7.56,0.48,11.34,0.63l11.35,0.1c15.11-0.21,30.21-1.37,45.12-3.84
	c14.89-2.55,29.57-6.21,43.88-10.96c57.2-19.22,107.43-57.08,141.43-105.98c8.61-12.15,16.03-25.1,22.54-38.43
	c6.47-13.35,12.02-27.16,16.2-41.36c1.18-3.51,2.04-7.11,2.99-10.69l1.39-5.37c0.47-1.79,0.78-3.61,1.18-5.42l1.12-5.43
	c0.35-1.81,0.79-3.61,1.04-5.44l1.7-10.94C566.3,308.46,567.11,293.74,566.9,279.06z"/>
</svg>
