<svg id="Layer_2" data-name="Layer 2" xmlns="http://www.w3.org/2000/svg" viewBox="0 0 362 254"><defs><style>.cls-1{fill:#fff;}</style></defs><title>vintage-instagram-icon</title><path d="M54.82,29.88c-12.89,0-23-4.66-23-10.61s10.1-10.61,23-10.61,23,4.66,23,10.61S67.71,29.88,54.82,29.88Zm0-19.45c-11.5,0-21.22,4.05-21.22,8.84s9.72,8.84,21.22,8.84S76,24.06,76,19.27,66.32,10.43,54.82,10.43Z"/><path d="M106.1,29.88c-12.89,0-23-4.66-23-10.61s10.1-10.61,23-10.61,23,4.66,23,10.61S119,29.88,106.1,29.88Zm0-19.45c-11.5,0-21.22,4.05-21.22,8.84s9.72,8.84,21.22,8.84,21.22-4.05,21.22-8.84S117.6,10.43,106.1,10.43Z"/><path d="M325.37,246.5h-290a22.13,22.13,0,0,1-22.11-22.1V51.1A22.14,22.14,0,0,1,35.37,29h95.49V27.23A22.13,22.13,0,0,1,153,5.12h173.3a22.13,22.13,0,0,1,22.1,22.11V85.58a22.23,22.23,0,0,1-.88,6.14V224.4A22.13,22.13,0,0,1,325.37,246.5ZM35.37,30.76A20.36,20.36,0,0,0,15,51.1V224.4a20.36,20.36,0,0,0,20.34,20.33h290a20.36,20.36,0,0,0,20.34-20.33V91.46l0-.12a20.33,20.33,0,0,0,.84-5.76V27.23A20.36,20.36,0,0,0,326.26,6.89H153a20.36,20.36,0,0,0-20.33,20.34v3.53Z"/><rect x="15.03" y="76.74" width="205.13" height="1.77" transform="translate(-0.68 1.04) rotate(-0.5)"/><rect x="220.16" y="91.77" width="125.55" height="1.77"/><path d="M220.16,93.54a.89.89,0,0,1-.89-.89V76.74a.89.89,0,0,1,1.77,0V92.65A.88.88,0,0,1,220.16,93.54Z"/><ellipse class="cls-1" cx="200.71" cy="145.7" rx="88.42" ry="74.27"/><path d="M200.71,220.86c-49.24,0-89.3-33.71-89.3-75.16s40.06-75.15,89.3-75.15S290,104.26,290,145.7,250,220.86,200.71,220.86Zm0-148.54c-48.27,0-87.54,32.92-87.54,73.38s39.27,73.39,87.54,73.39,87.53-32.92,87.53-73.39S249,72.32,200.71,72.32Z"/><path d="M199.58,210.69c-42.88,0-77.76-29.36-77.76-65.46s34.88-65.46,77.76-65.46,77.76,29.37,77.76,65.46S242.46,210.69,199.58,210.69Zm0-129.15c-41.9,0-76,28.57-76,63.69s34.09,63.69,76,63.69,76-28.57,76-63.69S241.48,81.54,199.58,81.54Z"/><path d="M200.24,191.77c-29.83,0-54.09-20.44-54.09-45.58s24.26-45.58,54.09-45.58,54.09,20.45,54.09,45.58S230.07,191.77,200.24,191.77Zm0-89.39c-28.85,0-52.32,19.65-52.32,43.81S171.39,190,200.24,190s52.33-19.65,52.33-43.81S229.09,102.38,200.24,102.38Z"/><path d="M302.2,75.86H272.51A12.58,12.58,0,0,1,260,63.29V44.21a12.57,12.57,0,0,1,12.56-12.56H302.2a12.57,12.57,0,0,1,12.56,12.56V63.29A12.58,12.58,0,0,1,302.2,75.86ZM272.51,33.42a10.81,10.81,0,0,0-10.8,10.79V63.29a10.82,10.82,0,0,0,10.8,10.8H302.2A10.82,10.82,0,0,0,313,63.29V44.21a10.81,10.81,0,0,0-10.8-10.79Z"/><path d="M181.7,51.1H152.51a11.06,11.06,0,0,1-11-11.05v-.89a11.06,11.06,0,0,1,11-11H181.7a11.07,11.07,0,0,1,11.05,11v.89A11.07,11.07,0,0,1,181.7,51.1ZM152.51,29.88a9.28,9.28,0,0,0-9.27,9.28v.89a9.28,9.28,0,0,0,9.27,9.28H181.7A9.29,9.29,0,0,0,191,40.05v-.89a9.29,9.29,0,0,0-9.28-9.28Z"/><path d="M222.81,72.32c-4,0-7.07-6.6-7.07-15s3.1-15,7.07-15,7.07,6.6,7.07,15S226.78,72.32,222.81,72.32Zm0-28.29c-2.51,0-5.3,5.44-5.3,13.26s2.79,13.26,5.3,13.26,5.31-5.45,5.31-13.26S225.32,44,222.81,44Z"/><path d="M14.15,109.45a14.15,14.15,0,1,1,0-28.29.89.89,0,0,1,0,1.77,12.38,12.38,0,0,0,0,24.76.88.88,0,1,1,0,1.76Z"/><path d="M347.85,106.32a.88.88,0,0,1,0-1.76,12.38,12.38,0,0,0,0-24.76.89.89,0,0,1,0-1.77,14.15,14.15,0,1,1,0,28.29Z"/><path d="M157.38,48.51a.88.88,0,0,1-.88-.88V35.12a.89.89,0,0,1,1.77,0V47.63A.89.89,0,0,1,157.38,48.51Z"/><path d="M167.11,48.45a.89.89,0,0,1-.89-.89V35.18a.89.89,0,0,1,1.77,0V47.56A.88.88,0,0,1,167.11,48.45Z"/><path d="M176.83,48.19a.88.88,0,0,1-.88-.89V35.44a.89.89,0,0,1,1.77,0V47.3A.89.89,0,0,1,176.83,48.19Z"/><path d="M122.9,100.61c-4.39,0-8-4.76-8-10.61s3.57-10.61,8-10.61,8,4.76,8,10.61S127.29,100.61,122.9,100.61Zm0-19.45c-3.41,0-6.19,4-6.19,8.84s2.78,8.84,6.19,8.84,6.19-4,6.19-8.84S126.31,81.16,122.9,81.16Z"/></svg>
